<?xml version="1.0" encoding="UTF-8" standalone="no"?>
<!-- Created with Inkscape (http://www.inkscape.org/) -->

<svg
   xmlns:dc="http://purl.org/dc/elements/1.1/"
   xmlns:cc="http://creativecommons.org/ns#"
   xmlns:rdf="http://www.w3.org/1999/02/22-rdf-syntax-ns#"
   xmlns:svg="http://www.w3.org/2000/svg"
   xmlns="http://www.w3.org/2000/svg"
   xmlns:xlink="http://www.w3.org/1999/xlink"
   xmlns:sodipodi="http://sodipodi.sourceforge.net/DTD/sodipodi-0.dtd"
   xmlns:inkscape="http://www.inkscape.org/namespaces/inkscape"
   width="1544"
   height="500"
   id="svg4478"
   version="1.1"
   inkscape:version="0.48.4 r9939"
   sodipodi:docname="Broadcast banner v2.svg"
   inkscape:export-filename="/home/edward/Downloads/banner-1544x500.png"
   inkscape:export-xdpi="90"
   inkscape:export-ydpi="90">
  <defs
     id="defs4480">
    <filter
       color-interpolation-filters="sRGB"
       id="filter4426"
       inkscape:collect="always">
      <feGaussianBlur
         id="feGaussianBlur4428"
         stdDeviation="5.6460407"
         inkscape:collect="always" />
    </filter>
    <radialGradient
       r="21.856001"
       cy="48.735001"
       cx="25.712"
       gradientTransform="matrix(13.492274,0,0,1.101008,1.1500708,652.21592)"
       gradientUnits="userSpaceOnUse"
       id="radialGradient3507"
       xlink:href="#linearGradient3889"
       inkscape:collect="always" />
    <radialGradient
       r="16.219"
       cy="12.062"
       cx="13.559"
       gradientTransform="matrix(7.6120887,31.56704,-46.708863,11.263287,660.81059,-310.0112)"
       gradientUnits="userSpaceOnUse"
       id="radialGradient3503"
       xlink:href="#linearGradient3963"
       inkscape:collect="always" />
    <linearGradient
       gradientTransform="matrix(12.328467,0,0,12.328467,52.191158,156.85552)"
       y2="43.344002"
       x2="0"
       y1="2.4375"
       gradientUnits="userSpaceOnUse"
       id="linearGradient3500"
       xlink:href="#linearGradient3984"
       inkscape:collect="always" />
    <radialGradient
       r="3.0311999"
       cy="8.6093998"
       cx="34.125"
       gradientTransform="matrix(24.656934,2.5540885e-6,-2.6726884e-6,25.801016,-368.51778,40.767959)"
       gradientUnits="userSpaceOnUse"
       id="radialGradient3495"
       xlink:href="#linearGradient3963"
       inkscape:collect="always" />
    <linearGradient
       gradientTransform="matrix(12.328467,0,0,12.328467,52.191157,155.02326)"
       y2="6.3632998"
       x2="36.533001"
       y1="8.75"
       x1="34.125"
       gradientUnits="userSpaceOnUse"
       id="linearGradient3492"
       xlink:href="#linearGradient3984"
       inkscape:collect="always" />
    <linearGradient
       id="linearGradient3984">
      <stop
         id="stop3986"
         stop-color="#ffffff"
         stop-opacity=".8"
         offset="0" />
      <stop
         id="stop3988"
         stop-color="#ffffff"
         stop-opacity="0"
         offset="1" />
    </linearGradient>
    <linearGradient
       id="linearGradient3963">
      <stop
         id="stop3965"
         stop-color="#eeeeec"
         offset="0" />
      <stop
         id="stop3967"
         stop-color="#d3d7cf"
         offset="1" />
    </linearGradient>
    <linearGradient
       id="linearGradient3889">
      <stop
         id="stop3891"
         stop-color="#2e3436"
         offset="0" />
      <stop
         id="stop3893"
         stop-color="#2e3436"
         stop-opacity="0"
         offset="1" />
    </linearGradient>
    <radialGradient
       id="radialGradient4240"
       xlink:href="#linearGradient3889"
       gradientUnits="userSpaceOnUse"
       cy="48.735001"
       cx="25.712"
       gradientTransform="matrix(1,0,0,0.092437,0,44.23)"
       r="21.856001" />
    <radialGradient
       id="radialGradient4242"
       xlink:href="#linearGradient3963"
       gradientUnits="userSpaceOnUse"
       cy="12.062"
       cx="13.559"
       gradientTransform="matrix(0.61744,2.5605,-3.7887,0.9136,49.367,-37.869)"
       r="16.219" />
    <linearGradient
       id="linearGradient4244"
       xlink:href="#linearGradient3984"
       gradientUnits="userSpaceOnUse"
       x2="0"
       y1="2.4375"
       y2="43.344002" />
    <radialGradient
       id="radialGradient4248"
       xlink:href="#linearGradient3963"
       gradientUnits="userSpaceOnUse"
       cy="8.6093998"
       cx="34.125"
       gradientTransform="matrix(2,2.0717e-7,-2.1679e-7,2.0928,-34.125,-9.2676)"
       r="3.0311999" />
    <linearGradient
       id="linearGradient4250"
       y2="6.3632998"
       xlink:href="#linearGradient3984"
       gradientUnits="userSpaceOnUse"
       x2="36.533001"
       y1="8.75"
       x1="34.125" />
    <filter
       id="filter4745"
       height="1.3019"
       width="1.3209"
       color-interpolation-filters="sRGB"
       y="-0.15096"
       x="-0.16044">
      <feGaussianBlur
         id="feGaussianBlur4747"
         stdDeviation="0.53269676" />
    </filter>
    <linearGradient
       id="linearGradient2906"
       y2="33.905998"
       gradientUnits="userSpaceOnUse"
       x2="15.298"
       gradientTransform="translate(0.70639,-1.5)"
       y1="-58.012001"
       x1="4.0938001">
      <stop
         id="stop3458"
         stop-color="#eeeeec"
         offset="0" />
      <stop
         id="stop3460"
         stop-color="#eeeeec"
         stop-opacity="0"
         offset="1" />
    </linearGradient>
    <linearGradient
       id="linearGradient2904"
       xlink:href="#linearGradient3984"
       gradientUnits="userSpaceOnUse"
       x2="0"
       y1="4.2188001"
       y2="43.780998" />
    <radialGradient
       id="radialGradient2666"
       xlink:href="#linearGradient3889"
       gradientUnits="userSpaceOnUse"
       cy="45.941002"
       cx="24.377001"
       gradientTransform="matrix(1,0,0,0.14554,0,39.255)"
       r="23.077" />
    <radialGradient
       inkscape:collect="always"
       xlink:href="#linearGradient3963"
       id="radialGradient5186"
       gradientUnits="userSpaceOnUse"
       gradientTransform="matrix(8.348451,34.620706,-51.227287,12.352851,867.9534,846.17039)"
       cx="13.559"
       cy="12.062"
       r="16.219" />
    <linearGradient
       inkscape:collect="always"
       xlink:href="#linearGradient3984"
       id="linearGradient5188"
       gradientUnits="userSpaceOnUse"
       gradientTransform="matrix(13.521072,0,0,13.521072,200.45862,1358.1999)"
       y1="2.4375"
       x2="0"
       y2="43.344002" />
    <radialGradient
       inkscape:collect="always"
       xlink:href="#linearGradient3963"
       id="radialGradient5190"
       gradientUnits="userSpaceOnUse"
       gradientTransform="matrix(27.042145,2.8011605e-6,-2.9312333e-6,28.296901,-260.94798,1230.8825)"
       cx="34.125"
       cy="8.6093998"
       r="3.0311999" />
    <linearGradient
       inkscape:collect="always"
       xlink:href="#linearGradient3984"
       id="linearGradient5192"
       gradientUnits="userSpaceOnUse"
       gradientTransform="matrix(13.521072,0,0,13.521072,200.45862,1356.1904)"
       x1="34.125"
       y1="8.75"
       x2="36.533001"
       y2="6.3632998" />
    <radialGradient
       inkscape:collect="always"
       xlink:href="#linearGradient3963"
       id="radialGradient5821"
       gradientUnits="userSpaceOnUse"
       gradientTransform="matrix(8.348451,34.620706,-51.227287,12.352851,867.9534,846.17039)"
       cx="13.559"
       cy="12.062"
       r="16.219" />
    <linearGradient
       inkscape:collect="always"
       xlink:href="#linearGradient3984"
       id="linearGradient5823"
       gradientUnits="userSpaceOnUse"
       gradientTransform="matrix(13.521072,0,0,13.521072,200.45862,1358.1999)"
       y1="2.4375"
       x2="0"
       y2="43.344002" />
    <radialGradient
       inkscape:collect="always"
       xlink:href="#linearGradient3963"
       id="radialGradient5825"
       gradientUnits="userSpaceOnUse"
       gradientTransform="matrix(27.042145,2.8011605e-6,-2.9312333e-6,28.296901,-260.94798,1230.8825)"
       cx="34.125"
       cy="8.6093998"
       r="3.0311999" />
    <linearGradient
       inkscape:collect="always"
       xlink:href="#linearGradient3984"
       id="linearGradient5827"
       gradientUnits="userSpaceOnUse"
       gradientTransform="matrix(13.521072,0,0,13.521072,200.45862,1356.1904)"
       x1="34.125"
       y1="8.75"
       x2="36.533001"
       y2="6.3632998" />
    <linearGradient
       inkscape:collect="always"
       xlink:href="#linearGradient3984"
       id="linearGradient5954"
       gradientUnits="userSpaceOnUse"
       gradientTransform="matrix(13.521072,0,0,13.521072,200.45862,1358.1999)"
       y1="2.4375"
       x2="0"
       y2="43.344002" />
    <linearGradient
       inkscape:collect="always"
       xlink:href="#linearGradient3984"
       id="linearGradient5958"
       gradientUnits="userSpaceOnUse"
       gradientTransform="matrix(13.521072,0,0,13.521072,200.45862,1356.1904)"
       x1="34.125"
       y1="8.75"
       x2="36.533001"
       y2="6.3632998" />
    <filter
       inkscape:collect="always"
       id="filter5960">
      <feGaussianBlur
         inkscape:collect="always"
         stdDeviation="15.466721"
         id="feGaussianBlur5962" />
    </filter>
    <filter
       inkscape:collect="always"
       id="filter5972"
       x="-0.016054465"
       width="1.0321089"
       y="-0.22837838"
       height="1.4567568">
      <feGaussianBlur
         inkscape:collect="always"
         stdDeviation="3.7133789"
         id="feGaussianBlur5974" />
    </filter>
  </defs>
  <sodipodi:namedview
     id="base"
     pagecolor="#ffffff"
     bordercolor="#666666"
     borderopacity="1.0"
     inkscape:pageopacity="0.0"
     inkscape:pageshadow="2"
     inkscape:zoom="0.70710678"
     inkscape:cx="426.9568"
     inkscape:cy="82.904093"
     inkscape:document-units="px"
     inkscape:current-layer="layer4"
     showgrid="false"
     inkscape:window-width="2558"
     inkscape:window-height="1542"
     inkscape:window-x="0"
     inkscape:window-y="31"
     inkscape:window-maximized="0" />
  <metadata
     id="metadata4483">
    <rdf:RDF>
      <cc:Work
         rdf:about="">
        <dc:format>image/svg+xml</dc:format>
        <dc:type
           rdf:resource="http://purl.org/dc/dcmitype/StillImage" />
        <dc:title></dc:title>
      </cc:Work>
    </rdf:RDF>
  </metadata>
  <g
     inkscape:groupmode="layer"
     id="layer8"
     inkscape:label="Gray background"
     style="display:inline">
    <rect
       style="fill:#f4f6f8;fill-opacity:1;stroke:none"
       id="rect5908"
       width="1544"
       height="500"
       x="0"
       y="0"
       inkscape:export-filename="/home/edward/Downloads/text5754.png"
       inkscape:export-xdpi="90"
       inkscape:export-ydpi="90" />
  </g>
  <g
     inkscape:groupmode="layer"
     id="layer7"
     inkscape:label="Blue bar"
     style="display:inline">
    <rect
       ry="0"
       rx="0"
       y="150"
       x="0"
       height="150"
       width="1544"
       id="rect5886"
       style="fill:#3896f8;fill-opacity:1;stroke:none;display:inline" />
  </g>
  <g
     inkscape:groupmode="layer"
     id="layer5"
     inkscape:label="Network content sharing"
     style="display:inline">
    <text
       sodipodi:linespacing="125%"
       id="text5964"
       y="236.93956"
       x="870.53729"
       style="font-size:40px;font-style:normal;font-variant:normal;font-weight:bold;font-stretch:normal;text-align:start;line-height:125%;letter-spacing:0px;word-spacing:0px;writing-mode:lr-tb;text-anchor:start;fill:#000000;fill-opacity:0.42920353;stroke:none;filter:url(#filter5972);font-family:Sans;-inkscape-font-specification:Sans Bold"
       xml:space="preserve"><tspan
         id="tspan5966"
         y="236.93956"
         x="870.53729"
         sodipodi:role="line">Network content sharing</tspan></text>
    <text
       xml:space="preserve"
       style="font-size:40px;font-style:normal;font-variant:normal;font-weight:bold;font-stretch:normal;text-align:start;line-height:125%;letter-spacing:0px;word-spacing:0px;writing-mode:lr-tb;text-anchor:start;fill:#ffffff;fill-opacity:1;stroke:none;font-family:Sans;-inkscape-font-specification:Sans Bold"
       x="868.76953"
       y="235.87891"
       id="text5754"
       sodipodi:linespacing="125%"
       inkscape:export-xdpi="90"
       inkscape:export-ydpi="90"><tspan
         sodipodi:role="line"
         x="868.76953"
         y="235.87891"
         id="tspan5890">Network content sharing</tspan></text>
  </g>
  <g
     inkscape:groupmode="layer"
     id="layer4"
     inkscape:label="Logo"
     style="display:inline">
    <g
       id="g5912"
       transform="matrix(0.70028851,-0.18764175,0.18764175,0.70028851,-286.99492,-832.80791)"
       style="fill:#000000;fill-opacity:1;filter:url(#filter5960)">
      <path
         d="m 333.55735,1374.6791 c -23.22109,0 -41.8315,18.609 -41.8315,41.8301 v 502.389 c 0,23.2211 18.60906,41.8315 41.8315,41.8315 h 382.8086 c 23.22109,0 41.83149,-18.6104 41.83149,-41.8315 v -449.1565 l -91.26723,-95.0694 H 333.55464 z"
         id="path5914"
         inkscape:connector-curvature="0"
         style="fill:#000000;fill-opacity:1" />
      <path
         d="m 333.55735,1388.6223 c -15.66552,0 -27.88721,12.2216 -27.88721,27.8872 v 502.389 c 0,15.6655 12.22156,27.8872 27.88721,27.8872 h 382.8086 c 15.66551,0 27.88721,-12.2216 27.88721,-27.8872 V 1475.6642 L 661.01744,1388.629 H 333.56411 z"
         id="path5916"
         inkscape:connector-curvature="0"
         style="fill:#000000;fill-opacity:1" />
      <path
         d="m 333.55735,1395.3828 c -12.13827,0 -21.12668,8.9884 -21.12668,21.1267 v 502.389 c 0,12.1382 8.98841,21.1266 21.12668,21.1266 h 382.8086 c 12.13827,0 21.12668,-8.9884 21.12668,-21.1266 v -441.125 l -79.4363,-82.3947 H 333.55059 z"
         id="path5918"
         inkscape:connector-curvature="0"
         style="opacity:0.8;fill:#000000;fill-opacity:1;stroke:url(#linearGradient5954);stroke-width:1.37932563;stroke-linecap:square;stroke-linejoin:round" />
      <path
         d="m 32.25,2.4062 v 6.875 c 0,0.95661 0.67666,1.5938 1.7188,1.5938 h 6.25 V 9.0625 L 33.2813,2.4063 h -1.0312 z"
         id="path5920"
         inkscape:connector-curvature="0"
         style="opacity:0.16000001;fill:#000000;fill-opacity:1;filter:url(#filter4745)"
         transform="matrix(13.521072,0,0,13.521072,200.45862,1356.1904)" />
      <path
         d="m 648.34414,1374.7818 v 85.3518 c -3e-5,15.6655 12.22155,27.8872 27.88721,27.8872 h 81.9715 v -18.1696 l -91.26724,-95.0694 h -18.59147 z"
         id="path5922"
         inkscape:connector-curvature="0"
         style="fill:#000000;fill-opacity:1" />
      <path
         d="m 661.86521,1388.7248 v 71.4075 c -2e-5,8.6629 5.70319,14.3661 14.36614,14.3661 h 67.60536 l -81.9715,-85.775 z"
         id="path5924"
         inkscape:connector-curvature="0"
         style="fill:#000000;fill-opacity:1" />
      <path
         d="m 668.62575,1406.0493 v 54.0843 c -2e-5,5.1015 2.50397,7.6056 7.6056,7.6056 h 51.9723 l -59.58737,-61.6899 z"
         id="path5926"
         inkscape:connector-curvature="0"
         style="opacity:0.8;fill:#000000;fill-opacity:1;stroke:url(#linearGradient5958);stroke-width:1.37932563;stroke-linecap:square" />
      <g
         transform="translate(148.3634,1202.512)"
         inkscape:label="Wifi"
         id="g5928"
         style="fill:#000000;fill-opacity:1">
        <g
           transform="matrix(1.0967359,0,0,1.0967359,-5.1447075,-16.341248)"
           id="g5930"
           style="fill:#000000;fill-opacity:1">
          <g
             id="g5932"
             style="opacity:0.43032789;fill:#000000;fill-opacity:1;filter:url(#filter4426)"
             transform="matrix(0.62982635,0,0,0.56981593,126.43763,336.77908)">
            <path
               id="path5934"
               sodipodi:rx="70"
               sodipodi:ry="70"
               style="fill:#000000;fill-opacity:1"
               sodipodi:type="arc"
               d="m 414.28571,396.64789 a 70,70 0 1 1 -140,0 70,70 0 1 1 140,0 z"
               transform="matrix(0.69695,0,0,0.69695,107.02,136.77)"
               sodipodi:cy="396.64789"
               sodipodi:cx="344.28571" />
            <path
               inkscape:connector-curvature="0"
               id="path5936"
               style="fill:#000000;fill-opacity:1"
               d="m 357.12,75.219 c -88.706,0 -167.25,33.723 -215.5,85.562 l 40,61.656 c 35.116,-46.921 100.55,-78.469 175.5,-78.469 69.397,0 130.64,27.063 167.22,68.312 l 41.47,-58.53 C 517.15,105.9 441.76,75.219 357.12,75.219 z" />
            <path
               inkscape:connector-curvature="0"
               id="path5938"
               style="fill:#000000;fill-opacity:1"
               d="m 350,229.5 c -50.457,0 -96.517,18.781 -131.56,49.688 l 33.781,52.094 c 26.41,-22.23 60.51,-35.66 97.78,-35.66 34.984,0 67.177,11.815 92.844,31.656 l 35.844,-50.625 c -34.67,-29.42 -79.59,-47.16 -128.68,-47.16 z" />
            <path
               inkscape:connector-curvature="0"
               id="path5940"
               d="m 372.16,138.25 c -116.58,0 -221.31,45.127 -293.44,116.81 l 37.906,58.406 c 53.301,-61.704 147.01,-102.69 253.78,-102.69 105.95,0 199.07,40.34 252.59,101.25 l 41.31,-58.28 c -72.1,-70.93 -176.27,-115.5 -292.15,-115.5 z"
               style="fill:#000000;fill-opacity:1"
               transform="translate(-16.162,-216.17)" />
          </g>
          <g
             id="g5942"
             style="fill:#000000;fill-opacity:1"
             transform="matrix(0.62982635,0,0,0.56981593,121.90195,327.17486)">
            <path
               id="path5944"
               sodipodi:rx="70"
               sodipodi:ry="70"
               style="fill:#000000;fill-opacity:1"
               sodipodi:type="arc"
               d="m 414.28571,396.64789 a 70,70 0 1 1 -140,0 70,70 0 1 1 140,0 z"
               transform="matrix(0.69695,0,0,0.69695,107.02,136.77)"
               sodipodi:cy="396.64789"
               sodipodi:cx="344.28571" />
            <path
               inkscape:connector-curvature="0"
               id="path5946"
               style="fill:#000000;fill-opacity:1"
               d="m 357.12,75.219 c -88.706,0 -167.25,33.723 -215.5,85.562 l 40,61.656 c 35.116,-46.921 100.55,-78.469 175.5,-78.469 69.397,0 130.64,27.063 167.22,68.312 l 41.47,-58.53 C 517.15,105.9 441.76,75.219 357.12,75.219 z" />
            <path
               inkscape:connector-curvature="0"
               id="path5948"
               style="fill:#000000;fill-opacity:1"
               d="m 350,229.5 c -50.457,0 -96.517,18.781 -131.56,49.688 l 33.781,52.094 c 26.41,-22.23 60.51,-35.66 97.78,-35.66 34.984,0 67.177,11.815 92.844,31.656 l 35.844,-50.625 c -34.67,-29.42 -79.59,-47.16 -128.68,-47.16 z" />
            <path
               inkscape:connector-curvature="0"
               id="path5950"
               style="fill:#000000;fill-opacity:1"
               d="m 372.16,138.25 c -116.58,0 -221.31,45.127 -293.44,116.81 l 37.906,58.406 c 53.301,-61.704 147.01,-102.69 253.78,-102.69 105.95,0 199.07,40.34 252.59,101.25 l 41.31,-58.28 c -72.1,-70.93 -176.27,-115.5 -292.15,-115.5 z"
               transform="translate(-16.162,-216.17)" />
          </g>
        </g>
      </g>
    </g>
    <g
       transform="matrix(0.70028851,-0.18764175,0.18764175,0.70028851,-295.4802,-835.63634)"
       id="g5194">
      <path
         style="fill:#888a85"
         inkscape:connector-curvature="0"
         id="path5196"
         d="m 333.55735,1374.6791 c -23.22109,0 -41.8315,18.609 -41.8315,41.8301 v 502.389 c 0,23.2211 18.60906,41.8315 41.8315,41.8315 h 382.8086 c 23.22109,0 41.83149,-18.6104 41.83149,-41.8315 v -449.1565 l -91.26723,-95.0694 H 333.55464 z" />
      <path
         style="fill:url(#radialGradient5821)"
         inkscape:connector-curvature="0"
         id="path5198"
         d="m 333.55735,1388.6223 c -15.66552,0 -27.88721,12.2216 -27.88721,27.8872 v 502.389 c 0,15.6655 12.22156,27.8872 27.88721,27.8872 h 382.8086 c 15.66551,0 27.88721,-12.2216 27.88721,-27.8872 V 1475.6642 L 661.01744,1388.629 H 333.56411 z" />
      <path
         style="opacity:0.8;fill:none;stroke:url(#linearGradient5823);stroke-width:1.37932563;stroke-linecap:square;stroke-linejoin:round"
         inkscape:connector-curvature="0"
         id="path5200"
         d="m 333.55735,1395.3828 c -12.13827,0 -21.12668,8.9884 -21.12668,21.1267 v 502.389 c 0,12.1382 8.98841,21.1266 21.12668,21.1266 h 382.8086 c 12.13827,0 21.12668,-8.9884 21.12668,-21.1266 v -441.125 l -79.4363,-82.3947 H 333.55059 z" />
      <path
         transform="matrix(13.521072,0,0,13.521072,200.45862,1356.1904)"
         style="opacity:0.16000001;fill:#2e3436;filter:url(#filter4745)"
         inkscape:connector-curvature="0"
         id="path5202"
         d="m 32.25,2.4062 v 6.875 c 0,0.95661 0.67666,1.5938 1.7188,1.5938 h 6.25 V 9.0625 L 33.2813,2.4063 h -1.0312 z" />
      <path
         style="fill:#888a85"
         inkscape:connector-curvature="0"
         id="path5204"
         d="m 648.34414,1374.7818 v 85.3518 c -3e-5,15.6655 12.22155,27.8872 27.88721,27.8872 h 81.9715 v -18.1696 l -91.26724,-95.0694 h -18.59147 z" />
      <path
         style="fill:url(#radialGradient5825)"
         inkscape:connector-curvature="0"
         id="path5206"
         d="m 661.86521,1388.7248 v 71.4075 c -2e-5,8.6629 5.70319,14.3661 14.36614,14.3661 h 67.60536 l -81.9715,-85.775 z" />
      <path
         style="opacity:0.8;fill:none;stroke:url(#linearGradient5827);stroke-width:1.37932563;stroke-linecap:square"
         inkscape:connector-curvature="0"
         id="path5208"
         d="m 668.62575,1406.0493 v 54.0843 c -2e-5,5.1015 2.50397,7.6056 7.6056,7.6056 h 51.9723 l -59.58737,-61.6899 z" />
      <g
         id="g5210"
         inkscape:label="Wifi"
         transform="translate(148.3634,1202.512)">
        <g
           id="g5212"
           transform="matrix(1.0967359,0,0,1.0967359,-5.1447075,-16.341248)">
          <g
             transform="matrix(0.62982635,0,0,0.56981593,126.43763,336.77908)"
             style="opacity:0.43032789;fill:#0f0f0f;fill-opacity:1;filter:url(#filter4426)"
             id="g5214">
            <path
               sodipodi:cx="344.28571"
               sodipodi:cy="396.64789"
               transform="matrix(0.69695,0,0,0.69695,107.02,136.77)"
               d="m 414.28571,396.64789 a 70,70 0 1 1 -140,0 70,70 0 1 1 140,0 z"
               sodipodi:type="arc"
               style="fill:#0f0f0f;fill-opacity:1"
               sodipodi:ry="70"
               sodipodi:rx="70"
               id="path5216" />
            <path
               d="m 357.12,75.219 c -88.706,0 -167.25,33.723 -215.5,85.562 l 40,61.656 c 35.116,-46.921 100.55,-78.469 175.5,-78.469 69.397,0 130.64,27.063 167.22,68.312 l 41.47,-58.53 C 517.15,105.9 441.76,75.219 357.12,75.219 z"
               style="fill:#0f0f0f;fill-opacity:1"
               id="path5218"
               inkscape:connector-curvature="0" />
            <path
               d="m 350,229.5 c -50.457,0 -96.517,18.781 -131.56,49.688 l 33.781,52.094 c 26.41,-22.23 60.51,-35.66 97.78,-35.66 34.984,0 67.177,11.815 92.844,31.656 l 35.844,-50.625 c -34.67,-29.42 -79.59,-47.16 -128.68,-47.16 z"
               style="fill:#0f0f0f;fill-opacity:1"
               id="path5220"
               inkscape:connector-curvature="0" />
            <path
               transform="translate(-16.162,-216.17)"
               style="fill:#0f0f0f;fill-opacity:1"
               d="m 372.16,138.25 c -116.58,0 -221.31,45.127 -293.44,116.81 l 37.906,58.406 c 53.301,-61.704 147.01,-102.69 253.78,-102.69 105.95,0 199.07,40.34 252.59,101.25 l 41.31,-58.28 c -72.1,-70.93 -176.27,-115.5 -292.15,-115.5 z"
               id="path5222"
               inkscape:connector-curvature="0" />
          </g>
          <g
             transform="matrix(0.62982635,0,0,0.56981593,121.90195,327.17486)"
             style="fill:#666666;fill-opacity:1"
             id="g5224">
            <path
               sodipodi:cx="344.28571"
               sodipodi:cy="396.64789"
               transform="matrix(0.69695,0,0,0.69695,107.02,136.77)"
               d="m 414.28571,396.64789 a 70,70 0 1 1 -140,0 70,70 0 1 1 140,0 z"
               sodipodi:type="arc"
               style="fill:#666666;fill-opacity:1"
               sodipodi:ry="70"
               sodipodi:rx="70"
               id="path5226" />
            <path
               d="m 357.12,75.219 c -88.706,0 -167.25,33.723 -215.5,85.562 l 40,61.656 c 35.116,-46.921 100.55,-78.469 175.5,-78.469 69.397,0 130.64,27.063 167.22,68.312 l 41.47,-58.53 C 517.15,105.9 441.76,75.219 357.12,75.219 z"
               style="fill:#666666;fill-opacity:1"
               id="path5228"
               inkscape:connector-curvature="0" />
            <path
               d="m 350,229.5 c -50.457,0 -96.517,18.781 -131.56,49.688 l 33.781,52.094 c 26.41,-22.23 60.51,-35.66 97.78,-35.66 34.984,0 67.177,11.815 92.844,31.656 l 35.844,-50.625 c -34.67,-29.42 -79.59,-47.16 -128.68,-47.16 z"
               style="fill:#666666;fill-opacity:1"
               id="path5230"
               inkscape:connector-curvature="0" />
            <path
               transform="translate(-16.162,-216.17)"
               d="m 372.16,138.25 c -116.58,0 -221.31,45.127 -293.44,116.81 l 37.906,58.406 c 53.301,-61.704 147.01,-102.69 253.78,-102.69 105.95,0 199.07,40.34 252.59,101.25 l 41.31,-58.28 c -72.1,-70.93 -176.27,-115.5 -292.15,-115.5 z"
               style="fill:#666666;fill-opacity:1"
               id="path5232"
               inkscape:connector-curvature="0" />
          </g>
        </g>
      </g>
    </g>
  </g>
</svg>
